<?xml version="1.0" encoding="UTF-8"?>
<svg id="Layer_1" data-name="Layer 1" xmlns="http://www.w3.org/2000/svg" viewBox="0 0 61 61">
  <defs>
    <style>
      .cls-1 {
        fill: #fff;
      }

      .cls-2 {
        fill: #b619c8;
      }

      .cls-3 {
        fill: #0666f2;
      }

      .cls-4 {
        fill: #1c1f2a;
      }

      .cls-5 {
        fill: #1aba73;
      }
    </style>
  </defs>
  <path class="cls-1" d="m54.34,14.51L32.52,1.91c-1.18-.68-2.63-.68-3.81,0L6.89,14.51c-1.18.68-1.91,1.94-1.91,3.3v25.19c0,1.36.73,2.62,1.91,3.3l21.82,12.6c1.18.68,2.63.68,3.81,0l21.82-12.6c1.18-.68,1.91-1.94,1.91-3.3v-25.19c0-1.36-.73-2.62-1.91-3.3Z"/>
  <g id="Sonatype_Logo_Favicon" data-name="Sonatype Logo Favicon">
    <g>
      <polygon class="cls-5" points="15.32 41.3 10.42 44.15 28.9 54.91 28.9 49.2 15.32 41.3"/>
      <polygon class="cls-4" points="8.69 19.64 8.69 41.16 13.76 38.2 13.76 22.6 8.69 19.64"/>
      <polygon class="cls-2" points="10.42 16.64 15.66 19.69 28.9 11.99 28.9 5.89 10.42 16.64"/>
      <polygon class="cls-3" points="47.48 22.6 47.48 38.21 52.55 41.16 52.55 19.64 47.48 22.6"/>
      <polygon class="cls-4" points="32.34 49.2 32.34 54.91 50.81 44.15 45.92 41.31 32.34 49.2"/>
      <polygon class="cls-4" points="32.34 5.89 32.34 11.99 45.57 19.68 50.81 16.64 32.34 5.89"/>
    </g>
  </g>
</svg>