<?xml version="1.0" encoding="UTF-8"?>
<svg id="Layer_1" data-name="Layer 1" xmlns="http://www.w3.org/2000/svg" viewBox="0 0 147 45">
  <g>
    <path d="M47.22,14.34l1.1-1.72c.78.8,2.32,1.54,3.75,1.54s2.21-.6,2.21-1.47c0-2.18-6.71-.62-6.71-4.9,0-1.82,1.56-3.36,4.37-3.36,1.88,0,3.31.67,4.3,1.54l-1.01,1.7c-.67-.74-1.88-1.33-3.29-1.33-1.27,0-2.05.6-2.05,1.38,0,1.96,6.71.48,6.71,4.9,0,1.98-1.63,3.47-4.62,3.47-1.91,0-3.61-.62-4.76-1.75Z" fill="#fff" stroke-width="0"/>
    <path d="M57.43,10.24c0-3.2,2.16-5.82,5.7-5.82s5.7,2.62,5.7,5.82-2.16,5.84-5.7,5.84-5.7-2.67-5.7-5.84ZM66.33,10.24c0-1.96-1.13-3.68-3.2-3.68s-3.2,1.72-3.2,3.68,1.15,3.7,3.2,3.7,3.2-1.72,3.2-3.7Z" fill="#fff" stroke-width="0"/>
    <path d="M78.13,15.81v-6.94c0-1.75-.9-2.3-2.25-2.3-1.22,0-2.28.74-2.85,1.47v7.77h-2.41V4.7h2.41v1.49c.74-.87,2.19-1.77,3.93-1.77,2.39,0,3.59,1.29,3.59,3.56v7.82h-2.41Z" fill="#fff" stroke-width="0"/>
    <path d="M89.91,15.81v-1.22c-.83.97-2.14,1.5-3.61,1.5-1.79,0-3.84-1.24-3.84-3.68,0-2.58,2.02-3.63,3.84-3.63,1.52,0,2.78.48,3.61,1.43v-1.66c0-1.29-1.08-2.07-2.6-2.07-1.24,0-2.35.46-3.29,1.43l-1.01-1.68c1.29-1.24,2.9-1.79,4.67-1.79,2.48,0,4.64,1.04,4.64,4v7.38h-2.41ZM89.91,13.28v-1.7c-.57-.76-1.61-1.15-2.64-1.15-1.36,0-2.39.8-2.39,2s1.04,2,2.39,2c1.04,0,2.07-.39,2.64-1.15Z" fill="#fff" stroke-width="0"/>
    <path d="M95.73,13.21v-6.42h-1.84v-2.09h1.84V1.67h2.41v3.04h2.25v2.09h-2.25v5.82c0,.76.37,1.33,1.06,1.33.46,0,.87-.21,1.06-.41l.58,1.84c-.44.39-1.15.71-2.25.71-1.89,0-2.85-1.01-2.85-2.88Z" fill="#fff" stroke-width="0"/>
    <path d="M102.79,17.99c.25.12.64.18.92.18.78,0,1.29-.23,1.61-.97l.55-1.26-4.58-11.24h2.6l3.24,8.32,3.24-8.32h2.58l-5.36,13.11c-.76,1.88-2.07,2.48-3.79,2.51-.35,0-1.04-.07-1.36-.16l.35-2.16Z" fill="#fff" stroke-width="0"/>
    <path d="M116.61,14.27v5.77h-2.41V4.7h2.41v1.52c.83-1.1,2.12-1.79,3.56-1.79,2.88,0,4.92,2.16,4.92,5.82s-2.04,5.84-4.92,5.84c-1.4,0-2.64-.64-3.56-1.82ZM122.61,10.24c0-2.16-1.24-3.68-3.15-3.68-1.13,0-2.3.64-2.85,1.47v4.39c.53.83,1.72,1.52,2.85,1.52,1.91,0,3.15-1.54,3.15-3.7Z" fill="#fff" stroke-width="0"/>
    <path d="M126.41,10.24c0-3.22,2.35-5.82,5.63-5.82s5.45,2.53,5.45,6.03v.6h-8.55c.18,1.66,1.43,3.06,3.52,3.06,1.1,0,2.37-.44,3.17-1.24l1.1,1.59c-1.13,1.06-2.76,1.63-4.51,1.63-3.36,0-5.82-2.32-5.82-5.84ZM132.02,6.4c-2.05,0-3.01,1.59-3.11,2.92h6.26c-.07-1.31-.97-2.92-3.15-2.92Z" fill="#fff" stroke-width="0"/>
    <path d="M55.69,39.81v-1.43c-.88,1.1-2.07,1.7-3.43,1.7-2.78,0-4.92-2.12-4.92-5.84s2.09-5.82,4.92-5.82c1.31,0,2.55.55,3.43,1.7v-5.66h2.94v15.34h-2.94ZM55.69,36.22v-3.93c-.48-.74-1.54-1.26-2.51-1.26-1.68,0-2.83,1.31-2.83,3.22s1.15,3.24,2.83,3.24c.97,0,2.03-.53,2.51-1.26Z" fill="#fff" stroke-width="0"/>
    <path d="M60.01,34.24c0-3.22,2.39-5.82,5.75-5.82s5.56,2.48,5.56,6.09v.69h-8.26c.21,1.36,1.31,2.48,3.2,2.48.94,0,2.23-.39,2.94-1.08l1.31,1.93c-1.1,1.01-2.85,1.54-4.58,1.54-3.38,0-5.93-2.28-5.93-5.84ZM65.76,30.82c-1.82,0-2.6,1.26-2.71,2.37h5.47c-.09-1.06-.83-2.37-2.76-2.37Z" fill="#fff" stroke-width="0"/>
    <path d="M75.6,39.81l-4.46-11.11h3.13l2.9,7.73,2.92-7.73h3.13l-4.46,11.11h-3.15Z" fill="#fff" stroke-width="0"/>
    <path d="M83.06,34.24c0-3.22,2.39-5.82,5.75-5.82s5.57,2.48,5.57,6.09v.69h-8.26c.21,1.36,1.31,2.48,3.2,2.48.94,0,2.23-.39,2.94-1.08l1.31,1.93c-1.1,1.01-2.85,1.54-4.57,1.54-3.38,0-5.93-2.28-5.93-5.84ZM88.81,30.82c-1.82,0-2.6,1.26-2.71,2.37h5.47c-.09-1.06-.83-2.37-2.76-2.37Z" fill="#fff" stroke-width="0"/>
    <path d="M95.91,39.81v-15.34h2.92v15.34h-2.92Z" fill="#fff" stroke-width="0"/>
    <path d="M100.33,34.24c0-3.15,2.21-5.82,5.86-5.82s5.89,2.67,5.89,5.82-2.21,5.84-5.89,5.84-5.86-2.69-5.86-5.84ZM109.05,34.24c0-1.72-1.01-3.22-2.85-3.22s-2.83,1.5-2.83,3.22,1.01,3.24,2.83,3.24,2.85-1.5,2.85-3.24Z" fill="#fff" stroke-width="0"/>
    <path d="M116.38,38.38v5.66h-2.92v-15.34h2.92v1.4c.85-1.08,2.07-1.68,3.43-1.68,2.85,0,4.92,2.12,4.92,5.82s-2.07,5.84-4.92,5.84c-1.31,0-2.51-.55-3.43-1.7ZM121.72,34.24c0-1.91-1.15-3.22-2.83-3.22-.94,0-2,.53-2.51,1.26v3.91c.48.71,1.56,1.29,2.51,1.29,1.68,0,2.83-1.31,2.83-3.24Z" fill="#fff" stroke-width="0"/>
    <path d="M125.93,34.24c0-3.22,2.39-5.82,5.75-5.82s5.57,2.48,5.57,6.09v.69h-8.26c.21,1.36,1.31,2.48,3.2,2.48.94,0,2.23-.39,2.94-1.08l1.31,1.93c-1.1,1.01-2.85,1.54-4.57,1.54-3.38,0-5.93-2.28-5.93-5.84ZM131.68,30.82c-1.82,0-2.6,1.26-2.71,2.37h5.47c-.09-1.06-.83-2.37-2.76-2.37Z" fill="#fff" stroke-width="0"/>
    <path d="M138.78,39.81v-11.11h2.92v1.49c.8-.97,2.16-1.77,3.54-1.77v2.85c-.21-.05-.46-.07-.8-.07-.97,0-2.25.55-2.74,1.27v7.33h-2.92Z" fill="#fff" stroke-width="0"/>
  </g>
  <g>
    <g id="Sonatype_Logo_Favicon" data-name="Sonatype Logo Favicon">
      <path d="M25.91,6.68v4.76l6.58,3.75v15.3l-6.58,3.74v4.46l10.63-6.05V12.72l-10.63-6.04ZM1.54,32.63l10.62,6.04v-4.45l-6.57-3.74v-15.3l6.57-3.74v-4.77L1.54,12.72v19.91Z" fill="#fff" stroke-width="0"/>
    </g>
    <path d="M21.07,29.08v-1.4c-.83,1.08-1.96,1.67-3.24,1.67-2.64,0-4.66-2.08-4.66-5.73s1.98-5.71,4.66-5.71c1.24,0,2.42.54,3.24,1.67v-5.55h2.79v15.05h-2.79ZM21.07,25.56v-3.86c-.46-.72-1.46-1.24-2.37-1.24-1.59,0-2.68,1.29-2.68,3.16s1.09,3.18,2.68,3.18c.91,0,1.92-.52,2.37-1.24Z" fill="#fff" stroke-width="0"/>
  </g>
</svg>