<svg viewBox="0 0 47 47" xmlns="http://www.w3.org/2000/svg" xmlns:xlink="http://www.w3.org/1999/xlink">
  <style>#print{ display: none; }#print:target{display:inline;}#print:target+#screen{display:none;}</style>
  <defs>
    <g id="logo" fill-rule="evenodd">
      <path d="M21.432 5.918l14.473 8.357v17.826l-15.44 8.915-15.439-8.915V15.504L0 12.602v22.4l20.464 11.816h.002l20.465-11.816V11.374L21.432.117z"/>
      <path d="M19.424 0L.81 10.752l5.024 2.899 13.59-7.852zM9.49 31.017h3.388V15.085H9.49v15.932zm13.64.286a9.098 9.098 0 003.751-.788l1.29 1.48 2.365-1.933-1.172-1.36c1.29-1.434 2.077-3.393 2.077-5.64 0-4.803-3.509-8.24-8.312-8.24-4.828 0-8.336 3.437-8.336 8.24 0 4.805 3.508 8.24 8.336 8.24zm0-3.006c-2.965 0-4.853-2.27-4.853-5.234 0-2.988 1.888-5.234 4.852-5.234 2.938 0 4.828 2.246 4.828 5.234 0 1.148-.288 2.199-.813 3.035L25.4 24.044l-2.364 1.935 1.743 2.055a5.196 5.196 0 01-1.649.263z"/>
    </g>
  </defs>
  <use fill="#3d4e90" id="print" xlink:href="#logo"/>
  <use fill="#fefefe" id="screen" xlink:href="#logo"/>
</svg>