<?xml version="1.0" encoding="UTF-8"?>
<svg id="Layer_1" data-name="Layer 1" xmlns="http://www.w3.org/2000/svg" viewBox="0 0 208 45">
  <g>
    <path d="M48.74,14.95l1.1-1.72c.78.8,2.32,1.54,3.75,1.54s2.21-.6,2.21-1.47c0-2.18-6.71-.62-6.71-4.9,0-1.82,1.56-3.36,4.37-3.36,1.88,0,3.31.67,4.3,1.54l-1.01,1.7c-.67-.74-1.89-1.33-3.29-1.33-1.26,0-2.05.6-2.05,1.38,0,1.95,6.71.48,6.71,4.9,0,1.98-1.63,3.47-4.62,3.47-1.91,0-3.61-.62-4.76-1.75Z" fill="#fff" stroke-width="0"/>
    <path d="M58.95,10.86c0-3.2,2.16-5.82,5.7-5.82s5.7,2.62,5.7,5.82-2.16,5.84-5.7,5.84-5.7-2.67-5.7-5.84ZM67.85,10.86c0-1.96-1.13-3.68-3.2-3.68s-3.2,1.72-3.2,3.68,1.15,3.7,3.2,3.7,3.2-1.72,3.2-3.7Z" fill="#fff" stroke-width="0"/>
    <path d="M79.65,16.42v-6.94c0-1.75-.9-2.3-2.25-2.3-1.22,0-2.28.74-2.85,1.47v7.77h-2.41V5.32h2.41v1.49c.74-.87,2.18-1.77,3.93-1.77,2.39,0,3.59,1.29,3.59,3.56v7.82h-2.41Z" fill="#fff" stroke-width="0"/>
    <path d="M91.42,16.42v-1.22c-.83.97-2.14,1.5-3.61,1.5-1.79,0-3.84-1.24-3.84-3.68,0-2.58,2.02-3.63,3.84-3.63,1.52,0,2.78.48,3.61,1.43v-1.66c0-1.29-1.08-2.07-2.6-2.07-1.24,0-2.35.46-3.29,1.43l-1.01-1.68c1.29-1.24,2.9-1.79,4.67-1.79,2.48,0,4.65,1.04,4.65,4v7.38h-2.42ZM91.42,13.89v-1.7c-.57-.76-1.61-1.15-2.64-1.15-1.36,0-2.39.8-2.39,2s1.03,2,2.39,2c1.04,0,2.07-.39,2.64-1.15Z" fill="#fff" stroke-width="0"/>
    <path d="M97.24,13.82v-6.42h-1.84v-2.09h1.84v-3.04h2.42v3.04h2.25v2.09h-2.25v5.82c0,.76.37,1.33,1.06,1.33.46,0,.87-.21,1.06-.41l.58,1.84c-.44.39-1.15.71-2.25.71-1.89,0-2.85-1.01-2.85-2.88Z" fill="#fff" stroke-width="0"/>
    <path d="M104.3,18.61c.25.12.64.18.92.18.78,0,1.29-.23,1.61-.97l.55-1.26-4.58-11.24h2.6l3.24,8.32,3.24-8.32h2.58l-5.36,13.11c-.76,1.88-2.07,2.48-3.79,2.51-.34,0-1.04-.07-1.36-.16l.34-2.16Z" fill="#fff" stroke-width="0"/>
    <path d="M118.13,14.88v5.77h-2.41V5.32h2.41v1.52c.83-1.1,2.12-1.79,3.56-1.79,2.87,0,4.92,2.16,4.92,5.82s-2.05,5.84-4.92,5.84c-1.4,0-2.64-.64-3.56-1.82ZM124.13,10.86c0-2.16-1.24-3.68-3.15-3.68-1.13,0-2.3.64-2.85,1.47v4.39c.53.83,1.72,1.52,2.85,1.52,1.91,0,3.15-1.54,3.15-3.7Z" fill="#fff" stroke-width="0"/>
    <path d="M127.92,10.86c0-3.22,2.35-5.82,5.63-5.82s5.45,2.53,5.45,6.03v.6h-8.55c.18,1.66,1.43,3.06,3.52,3.06,1.1,0,2.37-.44,3.17-1.24l1.1,1.59c-1.13,1.06-2.76,1.63-4.51,1.63-3.36,0-5.82-2.32-5.82-5.84ZM133.54,7.02c-2.05,0-3.01,1.59-3.1,2.92h6.25c-.07-1.31-.97-2.92-3.15-2.92Z" fill="#fff" stroke-width="0"/>
    <path d="M48.58,37.91l1.79-2.55c1.08,1.13,2.76,2.09,4.88,2.09,1.82,0,2.67-.8,2.67-1.7,0-2.67-8.83-.8-8.83-6.58,0-2.55,2.21-4.67,5.82-4.67,2.44,0,4.46.74,5.98,2.14l-1.82,2.44c-1.24-1.15-2.9-1.68-4.46-1.68-1.38,0-2.16.6-2.16,1.52,0,2.41,8.81.78,8.81,6.51,0,2.8-2.02,4.92-6.14,4.92-2.97,0-5.08-.99-6.53-2.44Z" fill="#fff" stroke-width="0"/>
    <path d="M62.86,40.07v-15.34h8.07c2.92,0,4.42,1.86,4.42,3.91,0,1.91-1.2,3.22-2.64,3.52,1.66.25,2.94,1.84,2.94,3.75,0,2.32-1.52,4.16-4.46,4.16h-8.32ZM72.01,29.21c0-.94-.69-1.61-1.79-1.61h-4.09v3.22h4.09c1.1,0,1.79-.62,1.79-1.61ZM72.31,35.44c0-.97-.69-1.75-1.96-1.75h-4.23v3.5h4.23c1.22,0,1.96-.64,1.96-1.75Z" fill="#fff" stroke-width="0"/>
    <path d="M76.8,32.41c0-4.62,3.38-7.93,8.03-7.93s8,3.31,8,7.93-3.38,7.93-8,7.93-8.03-3.31-8.03-7.93ZM89.47,32.41c0-2.87-1.82-5.04-4.65-5.04s-4.67,2.16-4.67,5.04,1.82,5.04,4.67,5.04,4.65-2.18,4.65-5.04Z" fill="#fff" stroke-width="0"/>
    <path d="M107.89,40.07v-11.06l-4.32,11.06h-1.43l-4.32-11.06v11.06h-3.27v-15.34h4.58l3.73,9.59,3.72-9.59h4.6v15.34h-3.29Z" fill="#fff" stroke-width="0"/>
    <path d="M132.68,40.07v-7.01c0-1.03-.46-1.77-1.66-1.77-1.04,0-1.89.69-2.3,1.29v7.5h-2.94v-7.01c0-1.03-.46-1.77-1.66-1.77-1.01,0-1.86.69-2.3,1.29v7.5h-2.92v-11.11h2.92v1.43c.48-.64,1.93-1.7,3.63-1.7s2.69.76,3.08,2c.64-.99,2.12-2,3.82-2,2.05,0,3.26,1.08,3.26,3.36v8.03h-2.94Z" fill="#fff" stroke-width="0"/>
    <path d="M144.62,40.07v-1.17c-.76.92-2.07,1.45-3.52,1.45-1.77,0-3.84-1.2-3.84-3.68,0-2.62,2.07-3.59,3.84-3.59,1.49,0,2.78.48,3.52,1.36v-1.4c0-1.13-.97-1.86-2.44-1.86-1.17,0-2.28.46-3.2,1.31l-1.15-2.05c1.36-1.22,3.1-1.75,4.85-1.75,2.55,0,4.88,1.01,4.88,4.21v7.17h-2.94ZM144.62,37.4v-1.38c-.48-.64-1.4-.99-2.34-.99-1.15,0-2.09.62-2.09,1.68s.94,1.66,2.09,1.66c.94,0,1.86-.32,2.34-.97Z" fill="#fff" stroke-width="0"/>
    <path d="M157.36,40.07v-6.71c0-1.54-.8-2.07-2.05-2.07-1.15,0-2.02.64-2.53,1.29v7.5h-2.92v-11.11h2.92v1.43c.71-.83,2.09-1.7,3.89-1.7,2.46,0,3.63,1.38,3.63,3.54v7.84h-2.94Z" fill="#fff" stroke-width="0"/>
    <path d="M169.28,40.07v-1.17c-.76.92-2.07,1.45-3.52,1.45-1.77,0-3.84-1.2-3.84-3.68,0-2.62,2.07-3.59,3.84-3.59,1.5,0,2.78.48,3.52,1.36v-1.4c0-1.13-.97-1.86-2.44-1.86-1.17,0-2.28.46-3.2,1.31l-1.15-2.05c1.36-1.22,3.1-1.75,4.85-1.75,2.55,0,4.88,1.01,4.88,4.21v7.17h-2.94ZM169.28,37.4v-1.38c-.48-.64-1.4-.99-2.35-.99-1.15,0-2.09.62-2.09,1.68s.94,1.66,2.09,1.66c.94,0,1.86-.32,2.35-.97Z" fill="#fff" stroke-width="0"/>
    <path d="M174.29,42.92l1.31-2.09c.9.97,2.09,1.36,3.47,1.36s3.08-.6,3.08-2.85v-1.08c-.87,1.1-2.07,1.72-3.45,1.72-2.76,0-4.9-1.93-4.9-5.63s2.09-5.66,4.9-5.66c1.33,0,2.55.55,3.45,1.7v-1.43h2.92v10.37c0,4.21-3.26,5.24-6,5.24-1.88,0-3.38-.44-4.78-1.66ZM182.16,36.13v-3.61c-.51-.71-1.56-1.24-2.51-1.24-1.68,0-2.83,1.15-2.83,3.06s1.15,3.06,2.83,3.06c.94,0,2-.55,2.51-1.27Z" fill="#fff" stroke-width="0"/>
    <path d="M186.69,34.5c0-3.22,2.39-5.82,5.75-5.82s5.56,2.48,5.56,6.09v.69h-8.25c.21,1.36,1.31,2.48,3.2,2.48.94,0,2.23-.39,2.94-1.08l1.31,1.93c-1.1,1.01-2.85,1.54-4.58,1.54-3.38,0-5.93-2.28-5.93-5.84ZM192.44,31.08c-1.82,0-2.6,1.26-2.71,2.37h5.47c-.09-1.06-.83-2.37-2.76-2.37Z" fill="#fff" stroke-width="0"/>
    <path d="M199.55,40.07v-11.11h2.92v1.49c.8-.97,2.16-1.77,3.54-1.77v2.85c-.21-.05-.46-.07-.8-.07-.97,0-2.25.55-2.74,1.27v7.33h-2.92Z" fill="#fff" stroke-width="0"/>
  </g>
  <g>
    <path d="M14.85,28.06l1.31-2.19c.86.81,2.55,1.59,3.97,1.59,1.31,0,1.93-.5,1.93-1.21,0-1.88-6.81-.33-6.81-4.86,0-1.93,1.67-3.62,4.71-3.62,1.93,0,3.47.67,4.62,1.57l-1.21,2.14c-.69-.71-2-1.33-3.4-1.33-1.09,0-1.81.48-1.81,1.12,0,1.69,6.83.26,6.83,4.9,0,2.12-1.81,3.67-5,3.67-2,0-3.93-.67-5.14-1.78Z" fill="#fff" stroke-width="0"/>
    <g id="Sonatype_Logo_Favicon" data-name="Sonatype Logo Favicon">
      <polygon points="30.16 8.44 28.04 12.09 33.7 15.34 33.7 21.63 37.78 21.63 37.78 12.84 30.16 8.44" fill="#fff" stroke-width="0"/>
      <polygon points="10.11 8.44 2.49 12.84 2.49 21.63 6.57 21.63 6.57 15.34 12.23 12.09 10.11 8.44" fill="#fff" stroke-width="0"/>
      <polygon points="20.13 2.65 12.51 7.05 14.63 10.7 20.13 7.52 25.64 10.7 27.75 7.05 20.13 2.65" fill="#fff" stroke-width="0"/>
      <polygon points="37.78 24.4 37.78 33.2 30.16 37.6 27.75 38.98 20.13 43.38 12.51 38.98 10.11 37.6 2.49 33.2 2.49 24.4 6.57 24.4 6.57 31 12.09 34.18 14.49 35.56 20.13 38.82 25.78 35.56 28.18 34.18 33.7 31 33.7 24.4 37.78 24.4" fill="#fff" stroke-width="0"/>
    </g>
  </g>
</svg>