<svg width="24" height="24" viewBox="0 0 24 24" fill="none" xmlns="http://www.w3.org/2000/svg">
<g id="Icons">
<path id="P1 - Paragraph Text" d="M5.26037 6H13.7604C14.2291 6 14.6979 6.3125 14.8854 6.75C15.0729 7.21875 15.0104 7.75 14.6666 8.09375L11.5104 11.625V17C11.5104 17.4062 11.2916 17.75 10.9479 17.9062C10.6041 18.0625 10.1979 18.0312 9.88537 17.8125L7.88537 16.3125C7.63537 16.125 7.51037 15.8438 7.51037 15.5V11.625L4.32287 8.09375C3.97912 7.71875 3.91662 7.21875 4.10412 6.75C4.29162 6.3125 4.76037 6 5.26037 6ZM15.0104 16H19.0104C19.5416 16 20.0104 16.4688 20.0104 17C20.0104 17.5625 19.5416 18 19.0104 18H15.0104C14.4479 18 14.0104 17.5625 14.0104 17C14.0104 16.4688 14.4479 16 15.0104 16ZM14.0104 12C14.0104 11.4688 14.4479 11 15.0104 11H19.0104C19.5416 11 20.0104 11.4688 20.0104 12C20.0104 12.5625 19.5416 13 19.0104 13H15.0104C14.4479 13 14.0104 12.5625 14.0104 12ZM17.0104 6H19.0104C19.5416 6 20.0104 6.46875 20.0104 7C20.0104 7.5625 19.5416 8 19.0104 8H17.0104C16.4479 8 16.0104 7.5625 16.0104 7C16.0104 6.46875 16.4479 6 17.0104 6Z" fill="#0D0D0D"/>
</g>
</svg>
