<svg xmlns="http://www.w3.org/2000/svg" viewBox="0 0 37 42.25" xmlns:xlink="http://www.w3.org/1999/xlink"><style>#print{ display: none; }#print:target{display:inline;}#print:target+#screen{display:none;}</style><defs><path id="hex" d="M19.37 5.34l13.09 7.54v16.09L18.5 37.01 4.54 28.97V13.99L0 11.37v20.22l18.5 10.66L37 31.59V10.26L19.37.1v5.24z"/></defs><path fill="#e10686" d="M20.81 25.43c-2.57 0-4.2-2-4.2-4.52s1.63-4.53 4.2-4.53S25 18.32 25 20.91a5 5 0 0 1-.7 2.62l-1.51-1.78-2.05 1.68 1.51 1.77a4.31 4.31 0 0 1-1.42.23m0 2.6a7.89 7.89 0 0 0 3.24-.68l1.12 1.27 2-1.67-1-1.17A7.18 7.18 0 0 0 28 20.91a6.92 6.92 0 0 0-7.19-7.12 6.92 6.92 0 0 0-7.22 7.12A6.92 6.92 0 0 0 20.81 28m-8.88-14H9v13.78h2.93z"/><path fill="#e10686" d="M17.56 0L.73 9.7l4.54 2.62 12.29-7.09V0z"/><use fill="#1c1f2a" id="print" xlink:href="#hex"/><use fill="#fff" id="screen" xlink:href="#hex"/></svg>
